@startuml

[*] -> LoggedOut : check log in status
LoggedOut --> LoginService : request login service


state LoginService{
  LoginPrompt : Request credentials
  [*] --> LoginPrompt 
  LoginPrompt --> LoginSuccessful
  LoginPrompt --> LoginFailed
}

  LoginSuccessful --> LoggedIn
  LoginFailed --> [*] : back to app with error message

LoggedIn -> [*] : proceed to app

@enduml
